<?xml version="1.0" ?><!DOCTYPE svg  PUBLIC '-//W3C//DTD SVG 1.1//EN'  'http://www.w3.org/Graphics/SVG/1.1/DTD/svg11.dtd'><svg enable-background="new 0 0 512 512" height="512px" id="development_1_" version="1.1" viewBox="0 0 512 512" width="512px" xml:space="preserve" xmlns="http://www.w3.org/2000/svg" xmlns:xlink="http://www.w3.org/1999/xlink"><g id="development"><linearGradient gradientUnits="userSpaceOnUse" id="SVGID_1_" x1="116.0244" x2="395.9758" y1="336.8145" y2="175.1844"><stop offset="0" style="stop-color:#F14D5C"/><stop offset="0.1309" style="stop-color:#F05454"/><stop offset="0.3346" style="stop-color:#ED663E"/><stop offset="0.3492" style="stop-color:#ED683C"/><stop offset="0.714" style="stop-color:#F3903F"/><stop offset="1" style="stop-color:#FDC70C"/></linearGradient><path d="M128.279,299.373c1.876,5.521,4.138,10.977,6.724,16.215c2.491,5.045,1.465,11.137-2.554,15.156   l-0.06,0.059c-9.02,9.076-9.004,23.799,0.05,32.854l15.905,15.904c9.071,9.07,23.831,9.07,32.903,0l0.045-0.045   c4.019-3.988,10.089-5.004,15.121-2.52c5.238,2.586,10.693,4.85,16.214,6.725c5.3,1.801,8.861,6.826,8.861,12.508   c0,12.828,10.437,23.266,23.266,23.266h22.493c12.83,0,23.266-10.438,23.266-23.266c0-5.682,3.563-10.707,8.861-12.508   c5.521-1.875,10.977-4.139,16.215-6.725c5.027-2.48,11.092-1.471,15.111,2.51l0.055,0.055c9.072,9.07,23.832,9.07,32.902,0   l15.904-15.904c9.055-9.055,9.072-23.777,0.051-32.854l-0.061-0.059c-4.018-4.02-5.045-10.111-2.553-15.158   c2.584-5.234,4.846-10.691,6.723-16.213c1.801-5.301,6.828-8.861,12.508-8.861c12.83,0,23.266-10.438,23.266-23.266v-22.493   c0-12.829-10.436-23.266-23.266-23.266c-5.68,0-10.707-3.561-12.508-8.861c-1.875-5.522-4.139-10.978-6.723-16.215   c-2.492-5.046-1.465-11.137,2.553-15.156l0.061-0.06c9.02-9.076,9.004-23.798-0.051-32.852l-15.904-15.905   c-9.07-9.07-23.832-9.071-32.902,0l-0.045,0.045c-4.021,3.988-10.092,5.001-15.121,2.518c-5.238-2.586-10.693-4.848-16.215-6.724   c-5.299-1.8-8.861-6.827-8.861-12.508c0-12.829-10.436-23.266-23.266-23.266h-22.493c-12.829,0-23.266,10.437-23.266,23.266   c0,5.681-3.561,10.708-8.861,12.508c-5.521,1.875-10.976,4.138-16.214,6.724c-5.027,2.482-11.092,1.472-15.112-2.51l-0.053-0.054   c-9.071-9.07-23.832-9.07-32.903,0l-15.905,15.905c-9.055,9.055-9.072,23.777-0.05,32.852l0.06,0.06   c4.019,4.019,5.045,10.11,2.554,15.156c-2.585,5.236-4.847,10.692-6.724,16.214c-1.8,5.3-6.827,8.861-12.508,8.861   c-12.829,0-23.266,10.437-23.266,23.266v22.493c0,12.828,10.437,23.266,23.266,23.266   C121.452,290.512,126.479,294.072,128.279,299.373z M115.771,231.488c9.966,0,18.798-6.287,21.977-15.645   c1.736-5.11,3.829-10.158,6.222-15.004c4.379-8.871,2.61-19.552-4.4-26.604l-0.059-0.06c-5.172-5.172-5.172-13.588,0-18.76   l15.905-15.905c5.157-5.158,13.54-5.173,18.717-0.043l0.053,0.053c7.051,7.051,17.762,8.84,26.654,4.45   c4.848-2.393,9.896-4.486,15.004-6.222c9.357-3.179,15.644-12.01,15.644-21.977c0-7.314,5.951-13.266,13.266-13.266h22.493   c7.314,0,13.266,5.951,13.266,13.266c0,9.966,6.287,18.798,15.645,21.977c5.109,1.735,10.156,3.829,15.004,6.222   c8.893,4.39,19.604,2.601,26.654-4.45l0.043-0.042c5.174-5.14,13.566-5.129,18.727,0.033l15.906,15.905   c5.172,5.172,5.172,13.588,0,18.76l-0.061,0.06c-7.01,7.051-8.777,17.732-4.398,26.604c2.393,4.846,4.484,9.895,6.221,15.005   c3.18,9.357,12.012,15.644,21.977,15.644c7.314,0,13.266,5.951,13.266,13.266V251h-65.488c-2.602-46.289-41.078-83.15-88.006-83.15   c-46.927,0-85.403,36.862-88.004,83.15h-65.49v-6.247C102.505,237.439,108.457,231.488,115.771,231.488z M334.15,256   c0,43.091-35.059,78.15-78.151,78.15c-43.091,0-78.149-35.059-78.149-78.15c0-43.093,35.058-78.151,78.149-78.151   C299.092,177.85,334.15,212.908,334.15,256z M102.505,267.246V261h65.49c2.601,46.289,41.077,83.15,88.004,83.15   c46.928,0,85.405-36.861,88.006-83.15h65.488v6.246c0,7.314-5.951,13.266-13.266,13.266c-9.965,0-18.797,6.287-21.977,15.645   c-1.736,5.109-3.828,10.158-6.221,15.004c-4.379,8.871-2.609,19.553,4.398,26.604l0.061,0.061c5.172,5.172,5.172,13.588,0,18.76   l-15.906,15.904c-5.156,5.158-13.539,5.172-18.717,0.045l-0.053-0.053c-7.051-7.051-17.76-8.84-26.654-4.451   c-4.848,2.395-9.895,4.486-15.004,6.223c-9.357,3.178-15.645,12.01-15.645,21.977c0,7.314-5.951,13.266-13.266,13.266h-22.493   c-7.314,0-13.266-5.951-13.266-13.266c0-9.967-6.287-18.799-15.644-21.977c-5.108-1.736-10.157-3.828-15.004-6.223   c-3.247-1.602-6.736-2.381-10.201-2.381c-6.024,0-11.977,2.355-16.453,6.832l-0.042,0.041c-5.175,5.139-13.567,5.129-18.727-0.033   l-15.905-15.904c-5.172-5.172-5.172-13.588,0-18.76l0.059-0.061c7.01-7.051,8.779-17.732,4.4-26.604   c-2.393-4.846-4.486-9.895-6.222-15.004c-3.179-9.357-12.011-15.645-21.977-15.645   C108.457,280.512,102.505,274.561,102.505,267.246z" fill="url(#SVGID_1_)"/></g></svg>