<?xml version="1.0" ?><!DOCTYPE svg  PUBLIC '-//W3C//DTD SVG 1.1//EN'  'http://www.w3.org/Graphics/SVG/1.1/DTD/svg11.dtd'><svg enable-background="new 0 0 512 512" height="512px" id="transform_x5F_tool_1_" version="1.1" viewBox="0 0 512 512" width="512px" xml:space="preserve" xmlns="http://www.w3.org/2000/svg" xmlns:xlink="http://www.w3.org/1999/xlink"><g id="transform_x5F_tool"><linearGradient gradientUnits="userSpaceOnUse" id="SVGID_1_" x1="75.1953" x2="436.3638" y1="361.2598" y2="152.739"><stop offset="0" style="stop-color:#F14D5C"/><stop offset="0.1309" style="stop-color:#F05454"/><stop offset="0.3346" style="stop-color:#ED663E"/><stop offset="0.3492" style="stop-color:#ED683C"/><stop offset="0.714" style="stop-color:#F3903F"/><stop offset="1" style="stop-color:#FDC70C"/></linearGradient><path d="M400.129,141.778c6.252,0,11.339-5.086,11.339-11.339v-17.788c0-6.252-5.087-11.339-11.339-11.339   h-17.788c-6.252,0-11.339,5.087-11.339,11.339v3.895h-94.988v-3.895c0-6.252-5.087-11.339-11.339-11.339h-17.788   c-6.253,0-11.34,5.087-11.34,11.339v3.895h-94.988v-3.895c0-6.252-5.087-11.339-11.339-11.339h-17.788   c-6.252,0-11.339,5.087-11.339,11.339v17.788c0,6.252,5.087,11.339,11.339,11.339h3.894v94.989h-3.894   c-6.252,0-11.339,5.086-11.339,11.339v17.789c0,6.252,5.087,11.338,11.339,11.338h3.894v94.989h-3.894   c-6.252,0-11.339,5.087-11.339,11.339v17.788c0,6.253,5.087,11.339,11.339,11.339h17.788c6.252,0,11.339-5.086,11.339-11.339   v-3.894h94.988v3.894c0,6.253,5.087,11.339,11.34,11.339h17.788c6.252,0,11.339-5.086,11.339-11.339v-3.894h94.988v3.894   c0,6.253,5.087,11.339,11.339,11.339h17.788c6.252,0,11.339-5.086,11.339-11.339v-17.788c0-6.252-5.087-11.339-11.339-11.339   h-3.894v-94.989h3.894c6.252,0,11.339-5.086,11.339-11.338v-17.789c0-6.252-5.087-11.339-11.339-11.339h-3.894v-94.989H400.129z    M381.002,112.651c0-0.739,0.601-1.339,1.339-1.339h17.788c0.738,0,1.339,0.601,1.339,1.339v17.788   c0,0.738-0.601,1.339-1.339,1.339h-17.788c-0.738,0-1.339-0.601-1.339-1.339V112.651z M245.547,112.651   c0-0.739,0.601-1.339,1.34-1.339h17.788c0.738,0,1.339,0.601,1.339,1.339v17.788c0,0.738-0.601,1.339-1.339,1.339h-17.788   c-0.739,0-1.34-0.601-1.34-1.339V112.651z M110.093,130.439v-17.788c0-0.739,0.601-1.339,1.339-1.339h17.788   c0.738,0,1.339,0.601,1.339,1.339v17.788c0,0.738-0.601,1.339-1.339,1.339h-17.788   C110.693,131.778,110.093,131.178,110.093,130.439z M110.093,265.895v-17.789c0-0.738,0.601-1.339,1.339-1.339h17.788   c0.738,0,1.339,0.601,1.339,1.339v17.789c0,0.738-0.601,1.338-1.339,1.338h-17.788   C110.693,267.232,110.093,266.633,110.093,265.895z M130.559,401.349c0,0.739-0.601,1.339-1.339,1.339h-17.788   c-0.738,0-1.339-0.6-1.339-1.339v-17.788c0-0.738,0.601-1.339,1.339-1.339h17.788c0.738,0,1.339,0.601,1.339,1.339V401.349z    M266.014,401.349c0,0.739-0.601,1.339-1.339,1.339h-17.788c-0.739,0-1.34-0.6-1.34-1.339v-17.788c0-0.738,0.601-1.339,1.34-1.339   h17.788c0.738,0,1.339,0.601,1.339,1.339V401.349z M401.468,383.561v17.788c0,0.739-0.601,1.339-1.339,1.339h-17.788   c-0.738,0-1.339-0.6-1.339-1.339v-17.788c0-0.738,0.601-1.339,1.339-1.339h17.788C400.867,382.222,401.468,382.822,401.468,383.561   z M401.468,248.106v17.789c0,0.738-0.601,1.338-1.339,1.338h-17.788c-0.738,0-1.339-0.6-1.339-1.338v-17.789   c0-0.738,0.601-1.339,1.339-1.339h17.788C400.867,246.767,401.468,247.368,401.468,248.106z M386.235,236.767h-3.895   c-6.252,0-11.339,5.086-11.339,11.339v17.789c0,6.252,5.087,11.338,11.339,11.338h3.895v94.989h-3.895   c-6.252,0-11.339,5.087-11.339,11.339v3.895h-94.988v-3.895c0-6.252-5.087-11.339-11.339-11.339h-17.788   c-6.253,0-11.34,5.087-11.34,11.339v3.895h-94.988v-3.895c0-6.252-5.087-11.339-11.339-11.339h-3.895v-94.989h3.895   c6.252,0,11.339-5.086,11.339-11.338v-17.789c0-6.252-5.087-11.339-11.339-11.339h-3.895v-94.989h3.895   c6.252,0,11.339-5.086,11.339-11.339v-3.894h94.988v3.894c0,6.252,5.087,11.339,11.34,11.339h17.788   c6.252,0,11.339-5.086,11.339-11.339v-3.894h94.988v3.894c0,6.252,5.087,11.339,11.339,11.339h3.895V236.767z" fill="url(#SVGID_1_)"/><linearGradient gradientUnits="userSpaceOnUse" id="SVGID_2_" x1="235.4399" x2="276.1199" y1="268.7422" y2="245.2556"><stop offset="1.100000e-007" style="stop-color:#ED6B3C"/><stop offset="0.3492" style="stop-color:#ED683C"/><stop offset="0.714" style="stop-color:#F3903F"/><stop offset="1" style="stop-color:#F6A22E"/></linearGradient><path d="M264.675,236.767h-17.788c-6.253,0-11.34,5.086-11.34,11.339v17.789   c0,6.252,5.087,11.338,11.34,11.338h17.788c6.252,0,11.339-5.086,11.339-11.338v-17.789   C276.014,241.854,270.927,236.767,264.675,236.767z M266.014,265.895c0,0.738-0.601,1.338-1.339,1.338h-17.788   c-0.739,0-1.34-0.6-1.34-1.338v-17.789c0-0.738,0.601-1.339,1.34-1.339h17.788c0.738,0,1.339,0.601,1.339,1.339V265.895z" fill="url(#SVGID_2_)"/></g></svg>